<?xml version="1.0" encoding="UTF-8" standalone="no"?>
<!-- Created with Inkscape (http://www.inkscape.org/) -->

<svg
   xmlns:dc="http://purl.org/dc/elements/1.1/"
   xmlns:cc="http://creativecommons.org/ns#"
   xmlns:rdf="http://www.w3.org/1999/02/22-rdf-syntax-ns#"
   xmlns:svg="http://www.w3.org/2000/svg"
   xmlns="http://www.w3.org/2000/svg"
   xmlns:sodipodi="http://sodipodi.sourceforge.net/DTD/sodipodi-0.dtd"
   xmlns:inkscape="http://www.inkscape.org/namespaces/inkscape"
   width="197.90724mm"
   height="169.18205mm"
   viewBox="0 0 197.90724 169.18205"
   version="1.1"
   id="svg8"
   inkscape:version="0.92.2 5c3e80d, 2017-08-06"
   sodipodi:docname="hermit_inactive.svg">
  <defs
     id="defs2" />
  <sodipodi:namedview
     id="base"
     pagecolor="#ffffff"
     bordercolor="#666666"
     borderopacity="1.0"
     inkscape:pageopacity="0.0"
     inkscape:pageshadow="2"
     inkscape:zoom="0.6890625"
     inkscape:cx="-312.75791"
     inkscape:cy="206.80406"
     inkscape:document-units="mm"
     inkscape:current-layer="layer1"
     showgrid="false"
     inkscape:window-width="2560"
     inkscape:window-height="1396"
     inkscape:window-x="0"
     inkscape:window-y="0"
     inkscape:window-maximized="1"
     fit-margin-top="0"
     fit-margin-left="0"
     fit-margin-right="0"
     fit-margin-bottom="0" />
  <metadata
     id="metadata5">
    <rdf:RDF>
      <cc:Work
         rdf:about="">
        <dc:format>image/svg+xml</dc:format>
        <dc:type
           rdf:resource="http://purl.org/dc/dcmitype/StillImage" />
        <dc:title></dc:title>
      </cc:Work>
    </rdf:RDF>
  </metadata>
  <g
     inkscape:label="Layer 1"
     inkscape:groupmode="layer"
     id="layer1"
     transform="translate(-9.4687719,-33.901218)">
    <ellipse
       style="fill:#de3d2f;fill-opacity:1;stroke:#772021;stroke-width:11.66971207;stroke-linecap:butt;stroke-linejoin:round;stroke-miterlimit:4;stroke-dasharray:none;stroke-opacity:1;paint-order:fill markers stroke"
       id="path815"
       cx="109.04913"
       cy="149.74527"
       rx="51.452759"
       ry="40.125473" />
    <path
       style="fill:#de3d2f;fill-opacity:1;stroke:#772021;stroke-width:11.67000008;stroke-linecap:round;stroke-linejoin:round;stroke-miterlimit:4;stroke-dasharray:none;stroke-opacity:1;paint-order:fill markers stroke"
       d="M 58.364323,169.13605 C 25.726379,183.34316 23.422524,197.16629 23.422524,197.16629"
       id="path845"
       inkscape:connector-curvature="0" />
    <path
       style="fill:#de3d2f;fill-opacity:1;stroke:#772021;stroke-width:11.67000008;stroke-linecap:round;stroke-linejoin:round;stroke-miterlimit:4;stroke-dasharray:none;stroke-opacity:1;paint-order:fill markers stroke"
       d="M 53.372637,143.40967 C 21.118669,143.0257 15.743008,156.46485 15.743008,156.46485"
       id="path847"
       inkscape:connector-curvature="0" />
    <path
       style="fill:#de3d2f;fill-opacity:1;stroke:#772021;stroke-width:11.67000008;stroke-linecap:round;stroke-linejoin:round;stroke-miterlimit:4;stroke-dasharray:none;stroke-opacity:1;paint-order:fill markers stroke"
       d="M 61.052154,127.28269 C 24.190475,111.92366 15.359032,121.90703 15.359032,121.90703"
       id="path849"
       inkscape:connector-curvature="0" />
    <path
       inkscape:connector-curvature="0"
       id="path851"
       d="m 158.48046,169.13605 c 32.63795,14.20711 34.9418,28.03024 34.9418,28.03024"
       style="fill:#de3d2f;fill-opacity:1;stroke:#772021;stroke-width:11.67000008;stroke-linecap:round;stroke-linejoin:round;stroke-miterlimit:4;stroke-dasharray:none;stroke-opacity:1;paint-order:fill markers stroke" />
    <path
       inkscape:connector-curvature="0"
       id="path853"
       d="m 163.47215,143.40967 c 32.25397,-0.38397 37.62963,13.05518 37.62963,13.05518"
       style="fill:#de3d2f;fill-opacity:1;stroke:#772021;stroke-width:11.67000008;stroke-linecap:round;stroke-linejoin:round;stroke-miterlimit:4;stroke-dasharray:none;stroke-opacity:1;paint-order:fill markers stroke" />
    <path
       inkscape:connector-curvature="0"
       id="path855"
       d="m 155.79263,127.28269 c 36.86168,-15.35903 45.69312,-5.37566 45.69312,-5.37566"
       style="fill:#de3d2f;fill-opacity:1;stroke:#772021;stroke-width:11.67000008;stroke-linecap:round;stroke-linejoin:round;stroke-miterlimit:4;stroke-dasharray:none;stroke-opacity:1;paint-order:fill markers stroke" />
    <path
       style="fill:#de3d2f;fill-opacity:1;stroke:#772021;stroke-width:11.66971207;stroke-linecap:butt;stroke-linejoin:round;stroke-miterlimit:4;stroke-dasharray:none;stroke-opacity:1;paint-order:fill markers stroke"
       d="M 72.571427,116.14739 C 41.853363,76.981859 49.148904,71.606197 49.148904,71.606197"
       id="path876"
       inkscape:connector-curvature="0" />
    <path
       inkscape:connector-curvature="0"
       id="path878"
       d="M 143.9037,116.14739 C 174.62176,76.981859 167.32622,71.606197 167.32622,71.606197"
       style="fill:#de3d2f;fill-opacity:1;stroke:#772021;stroke-width:11.66971207;stroke-linecap:butt;stroke-linejoin:round;stroke-miterlimit:4;stroke-dasharray:none;stroke-opacity:1;paint-order:fill markers stroke" />
    <path
       style="fill:#de3d2f;fill-opacity:1;stroke:#772021;stroke-width:44.10599899;stroke-linecap:butt;stroke-linejoin:round;stroke-miterlimit:4;stroke-dasharray:none;stroke-opacity:1;paint-order:fill markers stroke"
       d="m 194.4668,150.18359 a 81.269841,77.641722 0 0 0 -81.26953,77.64258 81.269841,77.641722 0 0 0 81.26953,77.64063 81.269841,77.641722 0 0 0 81.26953,-77.64063 81.269841,77.641722 0 0 0 -0.1875,-5.08008 H 217.2168 c -3.75929,0 -6.78516,-3.02587 -6.78516,-6.78515 v -64.25391 a 81.269841,77.641722 0 0 0 -15.96484,-1.52344 z"
       transform="scale(0.26458333)"
       id="path880"
       inkscape:connector-curvature="0" />
    <path
       id="path906"
       d="m 162.80566,39.736074 a 21.502645,20.542705 0 0 1 21.50256,20.542933 21.502645,20.542705 0 0 1 -21.50256,20.542416 21.502645,20.542705 0 0 1 -21.50256,-20.542416 21.502645,20.542705 0 0 1 0.0496,-1.344105 h 15.43367 c 0.99465,0 1.79524,-0.800595 1.79524,-1.795237 V 40.139151 a 21.502645,20.542705 0 0 1 4.22404,-0.403077 z"
       style="fill:#de3d2f;fill-opacity:1;stroke:#772021;stroke-width:11.66971207;stroke-linecap:butt;stroke-linejoin:round;stroke-miterlimit:4;stroke-dasharray:none;stroke-opacity:1;paint-order:fill markers stroke"
       inkscape:connector-curvature="0" />
  </g>
</svg>
